<svg t="1712481524235" class="icon" viewBox="0 0 1616 1024" version="1.1" xmlns="http://www.w3.org/2000/svg" p-id="4302" width="128" height="128"><path d="M18.863 859.621a789.558 158.99 0 1 0 1579.116 0 789.558 158.99 0 1 0-1579.116 0z" fill="#DFDFDF" p-id="4303"></path><path d="M1161.432 800.337c0 80.842-72.758 75.452-72.758 75.452H854.232l-350.316-2.694c-86.232 0-75.453-83.537-75.453-83.537V83.537c0-72.758 80.842-64.674 80.842-64.674h393.432l258.695 239.832v541.642z" fill="#FFFFFF" p-id="4304"></path><path d="M1091.368 889.263H854.232l-350.316-2.695c-29.642 0-53.895-8.084-67.369-26.947-24.252-29.642-18.863-70.063-18.863-70.063V83.537c0-24.253 8.084-43.116 21.558-56.59C466.19 2.695 512 5.39 512 5.39h396.126L1177.6 250.611v547.031c0 29.642-8.084 51.2-24.253 67.369-24.252 24.252-53.894 24.252-61.979 24.252z m-2.694-26.947s26.947 0 43.115-16.169c10.78-10.779 16.169-26.947 16.169-48.505V264.084L897.348 32.337H509.304c-2.694 0-35.031-2.695-53.894 13.474-8.085 8.084-13.474 21.557-13.474 37.726v708.716c0 2.694-2.695 32.336 13.474 51.2 10.778 10.779 26.947 18.863 48.505 18.863h584.758z" fill="#DFDFDF" p-id="4305"></path><path d="M1172.21 274.863H964.717c-26.948 0-45.81-8.084-61.98-21.558-21.557-24.252-18.862-56.59-18.862-59.284V21.558h26.947v175.158c0 2.695-2.695 24.252 10.779 40.42 8.084 10.78 24.253 13.475 40.421 13.475h207.495l2.695 24.252z" fill="#DFDFDF" p-id="4306"></path><path d="M560.505 355.705h134.737m175.158 0h134.737m-75.453 234.442c-64.673-56.59-140.126-48.505-140.126-48.505-78.147 2.695-123.958 48.505-123.958 48.505" fill="#FFFFFF" p-id="4307"></path><path d="M918.905 600.926c-59.284-51.2-129.347-45.81-129.347-45.81-72.758 2.695-115.874 45.81-115.874 45.81l-18.863-18.863c2.695-2.695 48.505-51.2 134.737-53.895 2.695 0 80.842-8.084 148.21 53.895l-18.863 18.863z m86.232-231.747H870.4v-26.947h134.737v26.947z m-309.895 0H560.505v-26.947h134.737v26.947z" fill="#DFDFDF" p-id="4308"></path><path d="M336.842 5.39V296.42m-72.758-161.684V296.42" fill="#FFFFFF" p-id="4309"></path><path d="M350.316 296.421h-26.948V5.39h26.948v291.032z m-72.758 0H250.61V134.737h26.947V296.42z" fill="#DFDFDF" p-id="4310"></path></svg>